<svg width="260.56406250000003" height="260.56406250000003" viewBox="0 0 425 425" class="css-1j8o68f"><defs id="SvgjsDefs3528"></defs><g id="SvgjsG3529" featurekey="rootContainer" transform="matrix(4.25,0,0,4.25,0,0)" fill="#111111"><path xmlns="http://www.w3.org/2000/svg" d="M0 0h100v100H0z"></path></g><g id="SvgjsG3530" featurekey="symbolFeature-0" transform="matrix(1.9935380074137221,0,0,1.9935380074137221,112.71774558029043,59.225614395843834)" fill="#00a8b5"><g xmlns="http://www.w3.org/2000/svg"><path d="M59.406,32.756c0-4.401-3.568-7.969-7.97-7.969c-4.4,0-7.969,3.567-7.969,7.969c0,3.824,2.695,7.015,6.288,7.787v16.04   c-3.593,0.772-6.288,3.963-6.288,7.786c0,4.4,3.568,7.97,7.969,7.97c4.401,0,7.97-3.569,7.97-7.97c0-3.823-2.695-7.014-6.289-7.786   v-16.04C56.711,39.771,59.406,36.58,59.406,32.756z"></path><path d="M67.31,40.529c-4.402,0-7.97,3.568-7.97,7.968c0,3.825,2.695,7.018,6.289,7.788v25.149H40.479   c-0.772-3.594-3.964-6.29-7.788-6.29c-4.401,0-7.97,3.569-7.97,7.971c0,4.4,3.568,7.97,7.97,7.97c3.824,0,7.016-2.696,7.788-6.289   H68.99V56.285c3.593-0.771,6.288-3.963,6.288-7.788C75.278,44.097,71.71,40.529,67.31,40.529z"></path><path d="M32.691,59.469c4.401,0,7.969-3.566,7.969-7.967c0-3.824-2.694-7.016-6.288-7.787V16.947h24.972   c0.033,4.372,3.585,7.906,7.966,7.906c4.4,0,7.969-3.567,7.969-7.968c0-4.402-3.568-7.969-7.969-7.969   c-3.224,0-5.993,1.917-7.248,4.67H31.011v30.129c-3.594,0.771-6.289,3.963-6.289,7.787C24.722,55.902,28.29,59.469,32.691,59.469z"></path></g></g><g id="SvgjsG3531" featurekey="nameFeature-0" transform="matrix(1.828922505892491,0,0,1.828922505892491,139.80529312374375,239.05292992929012)" fill="#ffffff"><path d="M1.2 40 l0 -4.48 l0.84 -0.56 l0 -17.92 l-0.84 -0.56 l0 -4.48 l14.56 0 l0 5.88 l-4.48 0 l-0.56 -0.84 l-3.64 0 l0 6.44 l6.44 0 l0 5.04 l-6.44 0 l0 6.44 l0.84 0.56 l0 4.48 l-6.72 0 z M18.738 40 l0 -4.48 l0.84 -0.56 l0 -17.92 l-0.84 -0.56 l0 -4.48 l6.72 0 l0 4.48 l-0.84 0.56 l0 17.92 l0.84 0.56 l0 4.48 l-6.72 0 z M28.436 40 l0 -4.48 l0.84 -0.56 l0 -17.92 l-0.84 -0.56 l0 -4.48 l6.72 0 l0 4.48 l-0.84 0.56 l0 17.92 l2.8 0 l0.56 -0.84 l4.48 0 l0 5.88 l-13.72 0 z M45.134 40 l0 -4.48 l0.84 -0.56 l0 -17.92 l-0.84 -0.56 l0 -4.48 l14.56 0 l0 5.88 l-4.48 0 l-0.56 -0.84 l-3.64 0 l0 6.44 l6.44 0 l0 5.04 l-6.44 0 l0 6.44 l3.64 0 l0.56 -0.84 l4.48 0 l0 5.88 l-14.56 0 z M66.392 40 l-3.72 -3.72 l0 -5.24 l5.04 0 l0 3.16 l0.76 0.76 l4.08 0 l0.76 -0.76 l0 -4.92 l-0.76 -0.76 l-6.16 0 l-3.72 -3.72 l0 -9.08 l3.72 -3.72 l8.24 0 l3.72 3.72 l0 5.24 l-5.04 0 l0 -3.16 l-0.76 -0.76 l-4.08 0 l-0.76 0.76 l0 4.92 l0.76 0.76 l6.16 0 l3.72 3.72 l0 9.08 l-3.72 3.72 l-8.24 0 z"></path></g><g id="SvgjsG3532" featurekey="nameFeature-1" transform="matrix(0.9614285579482823,0,0,0.9614285579482823,140.84628591384,310.4628582215103)" fill="#ffffff"><path d="M1.2 40 l0 -4.48 l0.84 -0.56 l0 -17.92 l-0.84 -0.56 l0 -4.48 l14.56 0 l0 5.88 l-4.48 0 l-0.56 -0.84 l-3.64 0 l0 6.44 l6.44 0 l0 5.04 l-6.44 0 l0 6.44 l3.64 0 l0.56 -0.84 l4.48 0 l0 5.88 l-14.56 0 z M18.738 40 l0 -4.48 l1.16 -0.76 l3.16 -8.76 l-3.16 -8.76 l-1.16 -0.76 l0 -4.48 l4.6 0 l3.52 9.68 l3.52 -9.68 l4.6 0 l0 4.48 l-1.16 0.76 l-3.16 8.76 l3.16 8.76 l1.16 0.76 l0 4.48 l-4.6 0 l-3.52 -9.68 l-3.52 9.68 l-4.6 0 z M37.956 40 l0 -4.48 l0.84 -0.56 l0 -17.92 l-0.84 -0.56 l0 -4.48 l12.8 0 l3.72 3.72 l0 10.76 l-3.72 3.72 l-6.92 0 l0 4.76 l0.84 0.56 l0 4.48 l-6.72 0 z M43.836 25.16 l4.84 0 l0.76 -0.76 l0 -6.6 l-0.76 -0.76 l-4.84 0 l0 8.12 z M57.45400000000001 40 l0 -4.48 l0.84 -0.56 l0 -17.92 l-0.84 -0.56 l0 -4.48 l6.72 0 l0 4.48 l-0.84 0.56 l0 17.92 l2.8 0 l0.56 -0.84 l4.48 0 l0 5.88 l-13.72 0 z M77.872 40 l-3.72 -3.72 l0 -20.56 l3.72 -3.72 l9.08 0 l3.72 3.72 l0 20.56 l-3.72 3.72 l-9.08 0 z M79.952 34.96 l4.92 0 l0.76 -0.76 l0 -16.4 l-0.76 -0.76 l-4.92 0 l-0.76 0.76 l0 16.4 z M93.65 40 l0 -4.48 l0.84 -0.56 l0 -17.92 l-0.84 -0.56 l0 -4.48 l12.8 0 l3.72 3.72 l0 10.2 l-2.16 2.2 l1.72 6.68 l1 0.72 l0 4.48 l-6.88 0 l0 -4.48 l0.72 -0.48 l-1.4 -5.4 l-3.64 0 l0 5.32 l0.84 0.56 l0 4.48 l-6.72 0 z M99.53 24.6 l4.84 0 l0.76 -0.76 l0 -6.04 l-0.76 -0.76 l-4.84 0 l0 7.56 z M113.348 40 l0 -4.48 l0.84 -0.56 l0 -17.92 l-0.84 -0.56 l0 -4.48 l14.56 0 l0 5.88 l-4.48 0 l-0.56 -0.84 l-3.64 0 l0 6.44 l6.44 0 l0 5.04 l-6.44 0 l0 6.44 l3.64 0 l0.56 -0.84 l4.48 0 l0 5.88 l-14.56 0 z M130.886 40 l0 -4.48 l0.84 -0.56 l0 -17.92 l-0.84 -0.56 l0 -4.48 l12.8 0 l3.72 3.72 l0 10.2 l-2.16 2.2 l1.72 6.68 l1 0.72 l0 4.48 l-6.88 0 l0 -4.48 l0.72 -0.48 l-1.4 -5.4 l-3.64 0 l0 5.32 l0.84 0.56 l0 4.48 l-6.72 0 z M136.76600000000002 24.6 l4.84 0 l0.76 -0.76 l0 -6.04 l-0.76 -0.76 l-4.84 0 l0 7.56 z"></path></g></svg>